<svg xmlns="http://www.w3.org/2000/svg" xmlns:xlink="http://www.w3.org/1999/xlink" width="1080" zoomAndPan="magnify" viewBox="0 0 810 809.999993" height="1080" preserveAspectRatio="xMidYMid meet" version="1.0"><defs><clipPath id="3abee8bf42"><path d="M 19.980469 21.527344 L 786.480469 21.527344 L 786.480469 788.027344 L 19.980469 788.027344 Z M 19.980469 21.527344 " clip-rule="nonzero"/></clipPath></defs><g clip-path="url(#3abee8bf42)"><path fill="#673ab7" d="M 786.480469 681.570312 C 786.480469 740.378906 738.828125 788.027344 680.019531 788.027344 L 126.4375 788.027344 C 67.652344 788.027344 19.980469 740.378906 19.980469 681.570312 L 19.980469 127.984375 C 19.980469 69.179688 67.652344 21.527344 126.4375 21.527344 L 680.019531 21.527344 C 738.828125 21.527344 786.480469 69.179688 786.480469 127.984375 Z M 786.480469 681.570312 " fill-opacity="1" fill-rule="nonzero"/></g><path fill="#ffffff" d="M 595.492188 438.84375 C 581.652344 419.683594 561.640625 406.480469 535.875 399.453125 C 535.875 399.453125 557.59375 391.578125 577.183594 362.195312 C 588.890625 343.457031 594.855469 320.886719 594.855469 294.488281 C 594.855469 248.710938 578.246094 213.578125 545.03125 189.519531 C 511.816406 165.460938 474.34375 149.277344 410.679688 149.277344 L 211.605469 149.277344 L 211.605469 660.277344 L 433.675781 660.277344 C 493.929688 659.851562 539.28125 646.863281 570.15625 621.953125 C 600.816406 596.617188 616.144531 559.140625 616.144531 509.105469 C 616.144531 481.429688 609.332031 458.007812 595.492188 438.84375 Z M 339.355469 234.445312 C 339.355469 234.445312 428.140625 234.445312 429.84375 234.445312 C 462.207031 234.445312 488.394531 260.632812 488.394531 292.996094 C 488.394531 325.359375 462.207031 351.546875 429.84375 351.546875 C 428.140625 351.546875 339.355469 351.546875 339.355469 351.546875 Z M 445.8125 575.109375 L 339.355469 575.109375 L 339.355469 447.359375 L 445.8125 447.359375 C 481.15625 447.359375 509.6875 475.890625 509.6875 511.234375 C 509.6875 546.582031 481.15625 575.109375 445.8125 575.109375 Z M 445.8125 575.109375 " fill-opacity="1" fill-rule="nonzero"/></svg>