<svg xmlns="http://www.w3.org/2000/svg" xmlns:xlink="http://www.w3.org/1999/xlink" width="1080" zoomAndPan="magnify" viewBox="0 0 810 809.999993" height="1080" preserveAspectRatio="xMidYMid meet" version="1.0"><defs><clipPath id="0d62586671"><path d="M 42.523438 7.410156 L 754.273438 7.410156 L 754.273438 802.410156 L 42.523438 802.410156 Z M 42.523438 7.410156 " clip-rule="nonzero"/></clipPath></defs><g clip-path="url(#0d62586671)"><path fill="#0277bd" d="M 754.171875 7.410156 L 42.628906 7.410156 L 105.410156 718.722656 L 398.398438 802.410156 L 691.386719 718.722656 Z M 754.171875 7.410156 " fill-opacity="1" fill-rule="nonzero"/></g><path fill="#039be5" d="M 398.398438 70.171875 L 398.398438 737.554688 L 632.789062 670.605469 L 685.109375 70.171875 Z M 398.398438 70.171875 " fill-opacity="1" fill-rule="nonzero"/><path fill="#ffffff" d="M 588.84375 174.777344 L 398.398438 174.777344 L 398.398438 258.460938 L 500.945312 258.460938 L 494.667969 342.144531 L 398.398438 342.144531 L 398.398438 425.828125 L 490.480469 425.828125 L 484.203125 519.972656 L 398.398438 549.265625 L 398.398438 637.132812 L 563.730469 582.738281 L 578.378906 342.144531 Z M 588.84375 174.777344 " fill-opacity="1" fill-rule="nonzero"/><path fill="#eeeeee" d="M 398.398438 174.777344 L 398.398438 258.460938 L 212.144531 258.460938 L 205.863281 174.777344 Z M 302.132812 342.144531 L 306.316406 425.828125 L 398.398438 425.828125 L 398.398438 342.144531 Z M 310.503906 467.671875 L 226.792969 467.671875 L 233.070312 582.738281 L 398.398438 637.132812 L 398.398438 549.265625 L 312.597656 519.972656 Z M 310.503906 467.671875 " fill-opacity="1" fill-rule="nonzero"/></svg>