<svg xmlns="http://www.w3.org/2000/svg" xmlns:xlink="http://www.w3.org/1999/xlink" width="1080" zoomAndPan="magnify" viewBox="0 0 810 809.999993" height="1080" preserveAspectRatio="xMidYMid meet" version="1.0"><defs><clipPath id="b5937e31ff"><path d="M 151.691406 531 L 404 531 L 404 786 L 151.691406 786 Z M 151.691406 531 " clip-rule="nonzero"/></clipPath><clipPath id="834a6ce8df"><path d="M 151.691406 276 L 404 276 L 404 532 L 151.691406 532 Z M 151.691406 276 " clip-rule="nonzero"/></clipPath><clipPath id="66215a8dba"><path d="M 151.691406 22 L 404 22 L 404 277 L 151.691406 277 Z M 151.691406 22 " clip-rule="nonzero"/></clipPath><clipPath id="fc13e1be89"><path d="M 403 22 L 657.941406 22 L 657.941406 277 L 403 277 Z M 403 22 " clip-rule="nonzero"/></clipPath><clipPath id="41bc37af76"><path d="M 403 276 L 657.941406 276 L 657.941406 532 L 403 532 Z M 403 276 " clip-rule="nonzero"/></clipPath></defs><g clip-path="url(#b5937e31ff)"><path fill="#0acf83" d="M 276.765625 785.457031 C 278.84375 785.457031 280.921875 785.40625 283 785.304688 C 285.074219 785.203125 287.148438 785.046875 289.21875 784.84375 C 291.289062 784.640625 293.351562 784.386719 295.40625 784.082031 C 297.464844 783.773438 299.511719 783.417969 301.550781 783.011719 C 303.59375 782.609375 305.621094 782.152344 307.636719 781.644531 C 309.65625 781.140625 311.65625 780.585938 313.648438 779.980469 C 315.636719 779.378906 317.613281 778.726562 319.570312 778.023438 C 321.527344 777.324219 323.464844 776.574219 325.386719 775.777344 C 327.308594 774.980469 329.210938 774.136719 331.089844 773.25 C 332.96875 772.359375 334.824219 771.425781 336.660156 770.441406 C 338.492188 769.460938 340.300781 768.4375 342.085938 767.367188 C 343.871094 766.296875 345.625 765.183594 347.355469 764.027344 C 349.082031 762.871094 350.78125 761.675781 352.453125 760.433594 C 354.125 759.195312 355.761719 757.914062 357.371094 756.59375 C 358.976562 755.273438 360.550781 753.917969 362.09375 752.519531 C 363.632812 751.121094 365.136719 749.6875 366.609375 748.214844 C 368.078125 746.742188 369.511719 745.238281 370.910156 743.695312 C 372.304688 742.152344 373.664062 740.578125 374.980469 738.96875 C 376.300781 737.359375 377.582031 735.722656 378.820312 734.050781 C 380.058594 732.378906 381.253906 730.675781 382.410156 728.949219 C 383.566406 727.21875 384.675781 725.460938 385.746094 723.675781 C 386.816406 721.890625 387.839844 720.078125 388.820312 718.246094 C 389.800781 716.410156 390.734375 714.550781 391.625 712.671875 C 392.511719 710.789062 393.355469 708.886719 394.152344 706.964844 C 394.945312 705.042969 395.695312 703.101562 396.394531 701.140625 C 397.097656 699.183594 397.75 697.207031 398.351562 695.214844 C 398.957031 693.226562 399.511719 691.21875 400.015625 689.203125 C 400.519531 687.183594 400.976562 685.152344 401.382812 683.113281 C 401.789062 681.070312 402.144531 679.023438 402.449219 676.964844 C 402.753906 674.90625 403.007812 672.839844 403.210938 670.769531 C 403.414062 668.699219 403.566406 666.625 403.671875 664.546875 C 403.773438 662.46875 403.824219 660.386719 403.824219 658.304688 L 403.824219 531.15625 L 276.765625 531.15625 C 274.683594 531.15625 272.605469 531.207031 270.53125 531.308594 C 268.453125 531.410156 266.378906 531.566406 264.308594 531.769531 C 262.242188 531.972656 260.179688 532.226562 258.121094 532.53125 C 256.0625 532.839844 254.015625 533.195312 251.976562 533.601562 C 249.9375 534.003906 247.910156 534.460938 245.890625 534.96875 C 243.875 535.472656 241.871094 536.027344 239.882812 536.632812 C 237.890625 537.234375 235.917969 537.886719 233.960938 538.589844 C 232 539.289062 230.0625 540.039062 228.140625 540.835938 C 226.21875 541.632812 224.320312 542.476562 222.441406 543.363281 C 220.558594 544.253906 218.703125 545.1875 216.871094 546.171875 C 215.035156 547.152344 213.226562 548.175781 211.441406 549.246094 C 209.660156 550.316406 207.902344 551.429688 206.175781 552.585938 C 204.445312 553.742188 202.746094 554.9375 201.074219 556.179688 C 199.40625 557.417969 197.765625 558.699219 196.160156 560.019531 C 194.550781 561.339844 192.976562 562.699219 191.4375 564.09375 C 189.894531 565.492188 188.390625 566.925781 186.921875 568.398438 C 185.449219 569.871094 184.015625 571.375 182.621094 572.917969 C 181.222656 574.460938 179.867188 576.035156 178.546875 577.644531 C 177.226562 579.253906 175.949219 580.890625 174.710938 582.5625 C 173.472656 584.234375 172.273438 585.9375 171.117188 587.664062 C 169.964844 589.394531 168.851562 591.152344 167.78125 592.9375 C 166.714844 594.722656 165.6875 596.535156 164.707031 598.367188 C 163.726562 600.203125 162.792969 602.0625 161.90625 603.941406 C 161.015625 605.824219 160.171875 607.726562 159.378906 609.648438 C 158.582031 611.570312 157.832031 613.511719 157.132812 615.472656 C 156.433594 617.429688 155.78125 619.40625 155.175781 621.398438 C 154.574219 623.386719 154.019531 625.394531 153.511719 627.410156 C 153.007812 629.429688 152.550781 631.460938 152.148438 633.5 C 151.742188 635.542969 151.386719 637.589844 151.082031 639.648438 C 150.777344 641.707031 150.519531 643.773438 150.316406 645.84375 C 150.113281 647.914062 149.960938 649.988281 149.859375 652.066406 C 149.757812 654.144531 149.707031 656.226562 149.707031 658.304688 C 149.707031 660.386719 149.757812 662.46875 149.859375 664.546875 C 149.960938 666.625 150.113281 668.699219 150.316406 670.769531 C 150.519531 672.839844 150.777344 674.90625 151.082031 676.964844 C 151.386719 679.023438 151.742188 681.070312 152.148438 683.113281 C 152.550781 685.152344 153.007812 687.183594 153.511719 689.203125 C 154.019531 691.21875 154.574219 693.226562 155.175781 695.214844 C 155.78125 697.207031 156.433594 699.183594 157.132812 701.140625 C 157.832031 703.101562 158.582031 705.042969 159.378906 706.964844 C 160.171875 708.886719 161.015625 710.789062 161.90625 712.671875 C 162.792969 714.550781 163.726562 716.410156 164.707031 718.246094 C 165.6875 720.078125 166.714844 721.890625 167.78125 723.675781 C 168.851562 725.460938 169.964844 727.21875 171.117188 728.949219 C 172.273438 730.675781 173.472656 732.378906 174.710938 734.050781 C 175.949219 735.722656 177.226562 737.359375 178.546875 738.96875 C 179.867188 740.578125 181.222656 742.152344 182.621094 743.695312 C 184.015625 745.238281 185.449219 746.742188 186.921875 748.214844 C 188.390625 749.6875 189.894531 751.121094 191.4375 752.519531 C 192.976562 753.914062 194.550781 755.273438 196.160156 756.59375 C 197.765625 757.914062 199.40625 759.195312 201.074219 760.433594 C 202.746094 761.675781 204.445312 762.871094 206.175781 764.027344 C 207.902344 765.183594 209.660156 766.296875 211.441406 767.367188 C 213.226562 768.4375 215.035156 769.460938 216.871094 770.441406 C 218.703125 771.421875 220.558594 772.359375 222.441406 773.25 C 224.320312 774.136719 226.21875 774.980469 228.140625 775.777344 C 230.0625 776.574219 232 777.324219 233.960938 778.023438 C 235.917969 778.726562 237.890625 779.378906 239.882812 779.980469 C 241.871094 780.585938 243.875 781.140625 245.890625 781.644531 C 247.910156 782.152344 249.9375 782.609375 251.976562 783.011719 C 254.015625 783.417969 256.0625 783.773438 258.121094 784.082031 C 260.179688 784.386719 262.242188 784.640625 264.308594 784.84375 C 266.378906 785.046875 268.453125 785.203125 270.53125 785.304688 C 272.605469 785.40625 274.683594 785.457031 276.765625 785.457031 Z M 276.765625 785.457031 " fill-opacity="1" fill-rule="nonzero"/></g><g clip-path="url(#834a6ce8df)"><path fill="#a259ff" d="M 149.707031 404.007812 C 149.707031 401.925781 149.757812 399.847656 149.859375 397.769531 C 149.960938 395.6875 150.113281 393.613281 150.316406 391.542969 C 150.519531 389.472656 150.777344 387.410156 151.082031 385.351562 C 151.386719 383.292969 151.742188 381.242188 152.148438 379.199219 C 152.550781 377.160156 153.007812 375.128906 153.511719 373.113281 C 154.019531 371.09375 154.574219 369.089844 155.175781 367.097656 C 155.78125 365.105469 156.433594 363.128906 157.132812 361.171875 C 157.832031 359.210938 158.582031 357.269531 159.378906 355.347656 C 160.171875 353.425781 161.015625 351.523438 161.90625 349.644531 C 162.792969 347.761719 163.726562 345.902344 164.707031 344.070312 C 165.6875 342.234375 166.714844 340.421875 167.78125 338.636719 C 168.851562 336.855469 169.964844 335.097656 171.117188 333.367188 C 172.273438 331.636719 173.472656 329.933594 174.710938 328.261719 C 175.949219 326.59375 177.226562 324.953125 178.546875 323.34375 C 179.867188 321.734375 181.222656 320.160156 182.621094 318.617188 C 184.015625 317.074219 185.449219 315.570312 186.921875 314.097656 C 188.390625 312.625 189.894531 311.191406 191.4375 309.792969 C 192.976562 308.398438 194.550781 307.039062 196.160156 305.71875 C 197.765625 304.398438 199.40625 303.117188 201.074219 301.878906 C 202.746094 300.640625 204.445312 299.441406 206.175781 298.285156 C 207.902344 297.128906 209.660156 296.015625 211.441406 294.945312 C 213.226562 293.875 215.035156 292.851562 216.871094 291.871094 C 218.703125 290.890625 220.558594 289.953125 222.441406 289.0625 C 224.320312 288.175781 226.21875 287.332031 228.140625 286.535156 C 230.0625 285.738281 232 284.992188 233.960938 284.289062 C 235.917969 283.589844 237.890625 282.9375 239.882812 282.332031 C 241.871094 281.726562 243.875 281.171875 245.890625 280.667969 C 247.910156 280.160156 249.9375 279.707031 251.976562 279.300781 C 254.015625 278.894531 256.0625 278.539062 258.121094 278.234375 C 260.179688 277.925781 262.242188 277.671875 264.308594 277.46875 C 266.378906 277.265625 268.453125 277.113281 270.53125 277.011719 C 272.605469 276.90625 274.683594 276.855469 276.765625 276.855469 L 403.824219 276.855469 L 403.824219 531.15625 L 276.765625 531.15625 C 274.683594 531.15625 272.605469 531.105469 270.53125 531.003906 C 268.453125 530.902344 266.378906 530.75 264.308594 530.542969 C 262.242188 530.339844 260.179688 530.085938 258.121094 529.78125 C 256.0625 529.476562 254.015625 529.121094 251.976562 528.714844 C 249.9375 528.308594 247.910156 527.851562 245.890625 527.347656 C 243.875 526.839844 241.871094 526.285156 239.882812 525.679688 C 237.890625 525.078125 235.917969 524.425781 233.960938 523.722656 C 232 523.023438 230.0625 522.273438 228.140625 521.476562 C 226.21875 520.679688 224.320312 519.839844 222.441406 518.949219 C 220.558594 518.058594 218.703125 517.125 216.871094 516.144531 C 215.035156 515.160156 213.226562 514.136719 211.441406 513.066406 C 209.660156 511.996094 207.902344 510.882812 206.175781 509.726562 C 204.445312 508.570312 202.746094 507.375 201.074219 506.132812 C 199.40625 504.894531 197.765625 503.613281 196.160156 502.292969 C 194.550781 500.976562 192.976562 499.617188 191.4375 498.21875 C 189.894531 496.820312 188.390625 495.386719 186.921875 493.914062 C 185.449219 492.445312 184.015625 490.9375 182.621094 489.394531 C 181.222656 487.851562 179.867188 486.277344 178.546875 484.667969 C 177.226562 483.0625 175.949219 481.421875 174.710938 479.75 C 173.472656 478.078125 172.273438 476.378906 171.117188 474.648438 C 169.964844 472.917969 168.851562 471.160156 167.78125 469.375 C 166.714844 467.589844 165.6875 465.78125 164.707031 463.945312 C 163.726562 462.109375 162.792969 460.25 161.90625 458.371094 C 161.015625 456.488281 160.171875 454.585938 159.378906 452.664062 C 158.582031 450.742188 157.832031 448.800781 157.132812 446.84375 C 156.433594 444.882812 155.78125 442.90625 155.175781 440.917969 C 154.574219 438.925781 154.019531 436.921875 153.511719 434.902344 C 153.007812 432.882812 152.550781 430.851562 152.148438 428.8125 C 151.742188 426.769531 151.386719 424.722656 151.082031 422.664062 C 150.777344 420.605469 150.519531 418.539062 150.316406 416.46875 C 150.113281 414.398438 149.960938 412.324219 149.859375 410.246094 C 149.757812 408.167969 149.707031 406.085938 149.707031 404.007812 Z M 149.707031 404.007812 " fill-opacity="1" fill-rule="nonzero"/></g><g clip-path="url(#66215a8dba)"><path fill="#f24e1e" d="M 149.707031 149.707031 C 149.707031 147.625 149.757812 145.546875 149.859375 143.472656 C 149.960938 141.394531 150.113281 139.320312 150.316406 137.25 C 150.519531 135.179688 150.773438 133.117188 151.078125 131.058594 C 151.382812 129 151.738281 126.953125 152.144531 124.914062 C 152.550781 122.875 153.003906 120.84375 153.507812 118.828125 C 154.015625 116.808594 154.566406 114.804688 155.171875 112.816406 C 155.773438 110.824219 156.425781 108.851562 157.125 106.890625 C 157.824219 104.933594 158.574219 102.992188 159.367188 101.070312 C 160.164062 99.148438 161.003906 97.25 161.894531 95.367188 C 162.78125 93.488281 163.714844 91.628906 164.695312 89.796875 C 165.671875 87.960938 166.695312 86.152344 167.765625 84.367188 C 168.832031 82.582031 169.945312 80.828125 171.097656 79.097656 C 172.253906 77.367188 173.449219 75.667969 174.6875 73.996094 C 175.921875 72.324219 177.199219 70.683594 178.519531 69.078125 C 179.835938 67.46875 181.195312 65.894531 182.589844 64.351562 C 183.984375 62.8125 185.417969 61.304688 186.886719 59.832031 C 188.355469 58.363281 189.859375 56.925781 191.398438 55.53125 C 192.9375 54.132812 194.511719 52.773438 196.117188 51.453125 C 197.722656 50.132812 199.359375 48.855469 201.027344 47.613281 C 202.695312 46.375 204.394531 45.175781 206.121094 44.019531 C 207.851562 42.863281 209.605469 41.75 211.386719 40.679688 C 213.167969 39.609375 214.976562 38.582031 216.808594 37.601562 C 218.640625 36.621094 220.496094 35.683594 222.375 34.796875 C 224.253906 33.90625 226.152344 33.0625 228.074219 32.265625 C 229.992188 31.46875 231.929688 30.71875 233.886719 30.015625 C 235.84375 29.3125 237.816406 28.660156 239.804688 28.054688 C 241.792969 27.449219 243.792969 26.894531 245.808594 26.386719 C 247.824219 25.878906 249.851562 25.425781 251.890625 25.015625 C 253.929688 24.609375 255.976562 24.253906 258.03125 23.945312 C 260.085938 23.640625 262.148438 23.382812 264.21875 23.179688 C 266.285156 22.972656 268.359375 22.816406 270.433594 22.714844 C 272.507812 22.609375 274.585938 22.558594 276.664062 22.558594 L 403.722656 22.558594 L 403.722656 276.855469 L 276.765625 276.855469 C 274.683594 276.855469 272.605469 276.804688 270.53125 276.703125 C 268.453125 276.601562 266.378906 276.449219 264.308594 276.246094 C 262.242188 276.039062 260.179688 275.785156 258.121094 275.480469 C 256.0625 275.175781 254.015625 274.820312 251.976562 274.414062 C 249.9375 274.007812 247.910156 273.550781 245.890625 273.046875 C 243.875 272.539062 241.871094 271.984375 239.882812 271.382812 C 237.890625 270.777344 235.917969 270.125 233.960938 269.425781 C 232 268.722656 230.0625 267.972656 228.140625 267.179688 C 226.21875 266.382812 224.320312 265.539062 222.441406 264.648438 C 220.558594 263.757812 218.703125 262.824219 216.871094 261.84375 C 215.035156 260.863281 213.226562 259.835938 211.441406 258.765625 C 209.660156 257.695312 207.902344 256.585938 206.175781 255.429688 C 204.445312 254.273438 202.746094 253.074219 201.074219 251.835938 C 199.40625 250.59375 197.765625 249.316406 196.160156 247.996094 C 194.550781 246.675781 192.976562 245.316406 191.4375 243.917969 C 189.894531 242.519531 188.390625 241.085938 186.921875 239.617188 C 185.449219 238.144531 184.015625 236.636719 182.621094 235.09375 C 181.222656 233.554688 179.867188 231.976562 178.546875 230.371094 C 177.226562 228.761719 175.949219 227.121094 174.710938 225.449219 C 173.472656 223.777344 172.273438 222.078125 171.117188 220.347656 C 169.964844 218.617188 168.851562 216.859375 167.78125 215.074219 C 166.714844 213.289062 165.6875 211.480469 164.707031 209.644531 C 163.726562 207.808594 162.792969 205.953125 161.90625 204.070312 C 161.015625 202.1875 160.171875 200.289062 159.378906 198.363281 C 158.582031 196.441406 157.832031 194.5 157.132812 192.542969 C 156.433594 190.582031 155.78125 188.609375 155.175781 186.617188 C 154.574219 184.625 154.019531 182.621094 153.511719 180.601562 C 153.007812 178.582031 152.550781 176.554688 152.148438 174.511719 C 151.742188 172.472656 151.386719 170.421875 151.082031 168.363281 C 150.777344 166.304688 150.519531 164.242188 150.316406 162.167969 C 150.113281 160.097656 149.960938 158.023438 149.859375 155.945312 C 149.757812 153.867188 149.707031 151.789062 149.707031 149.707031 Z M 149.707031 149.707031 " fill-opacity="1" fill-rule="nonzero"/></g><g clip-path="url(#fc13e1be89)"><path fill="#ff7262" d="M 403.824219 22.558594 L 530.882812 22.558594 C 532.960938 22.558594 535.039062 22.609375 537.117188 22.710938 C 539.195312 22.8125 541.265625 22.964844 543.335938 23.167969 C 545.40625 23.371094 547.46875 23.628906 549.527344 23.933594 C 551.582031 24.238281 553.628906 24.59375 555.667969 25 C 557.710938 25.40625 559.738281 25.863281 561.753906 26.367188 C 563.773438 26.871094 565.773438 27.425781 567.765625 28.03125 C 569.753906 28.636719 571.730469 29.289062 573.6875 29.988281 C 575.644531 30.691406 577.585938 31.4375 579.503906 32.234375 C 581.425781 33.03125 583.328125 33.875 585.207031 34.765625 C 587.085938 35.652344 588.941406 36.589844 590.777344 37.570312 C 592.609375 38.550781 594.417969 39.578125 596.203125 40.644531 C 597.988281 41.714844 599.742188 42.828125 601.472656 43.984375 C 603.199219 45.140625 604.902344 46.339844 606.570312 47.578125 C 608.242188 48.820312 609.878906 50.097656 611.488281 51.417969 C 613.09375 52.738281 614.667969 54.097656 616.210938 55.496094 C 617.75 56.890625 619.253906 58.328125 620.726562 59.796875 C 622.195312 61.269531 623.628906 62.777344 625.027344 64.316406 C 626.421875 65.859375 627.78125 67.433594 629.101562 69.042969 C 630.417969 70.652344 631.699219 72.292969 632.9375 73.964844 C 634.175781 75.636719 635.371094 77.335938 636.527344 79.066406 C 637.683594 80.796875 638.792969 82.554688 639.863281 84.339844 C 640.933594 86.125 641.957031 87.933594 642.9375 89.769531 C 643.917969 91.605469 644.851562 93.460938 645.742188 95.34375 C 646.632812 97.222656 647.472656 99.125 648.269531 101.046875 C 649.066406 102.972656 649.8125 104.910156 650.511719 106.871094 C 651.214844 108.832031 651.867188 110.804688 652.46875 112.796875 C 653.074219 114.789062 653.628906 116.792969 654.132812 118.8125 C 654.636719 120.832031 655.09375 122.859375 655.5 124.902344 C 655.90625 126.941406 656.261719 128.992188 656.566406 131.050781 C 656.871094 133.109375 657.125 135.171875 657.328125 137.242188 C 657.53125 139.316406 657.6875 141.390625 657.789062 143.46875 C 657.890625 145.546875 657.941406 147.625 657.941406 149.707031 C 657.941406 151.789062 657.890625 153.867188 657.789062 155.945312 C 657.6875 158.023438 657.53125 160.097656 657.328125 162.167969 C 657.125 164.242188 656.871094 166.304688 656.566406 168.363281 C 656.261719 170.421875 655.90625 172.472656 655.5 174.511719 C 655.09375 176.554688 654.636719 178.582031 654.132812 180.601562 C 653.628906 182.621094 653.074219 184.625 652.46875 186.617188 C 651.867188 188.609375 651.214844 190.582031 650.511719 192.542969 C 649.8125 194.5 649.066406 196.441406 648.269531 198.363281 C 647.472656 200.289062 646.628906 202.1875 645.742188 204.070312 C 644.851562 205.953125 643.917969 207.808594 642.9375 209.644531 C 641.957031 211.480469 640.933594 213.289062 639.863281 215.074219 C 638.792969 216.859375 637.683594 218.617188 636.527344 220.347656 C 635.371094 222.078125 634.175781 223.777344 632.9375 225.449219 C 631.699219 227.121094 630.417969 228.761719 629.101562 230.371094 C 627.78125 231.976562 626.421875 233.554688 625.027344 235.09375 C 623.628906 236.636719 622.195312 238.144531 620.726562 239.617188 C 619.253906 241.085938 617.75 242.519531 616.210938 243.917969 C 614.667969 245.316406 613.09375 246.675781 611.488281 247.996094 C 609.878906 249.316406 608.242188 250.59375 606.570312 251.835938 C 604.902344 253.074219 603.199219 254.273438 601.472656 255.429688 C 599.742188 256.585938 597.988281 257.695312 596.203125 258.765625 C 594.417969 259.835938 592.609375 260.863281 590.777344 261.84375 C 588.941406 262.824219 587.085938 263.757812 585.207031 264.648438 C 583.328125 265.539062 581.425781 266.382812 579.503906 267.179688 C 577.585938 267.972656 575.644531 268.722656 573.6875 269.425781 C 571.730469 270.125 569.753906 270.777344 567.765625 271.382812 C 565.773438 271.984375 563.773438 272.539062 561.753906 273.046875 C 559.738281 273.550781 557.710938 274.007812 555.667969 274.414062 C 553.628906 274.820312 551.582031 275.175781 549.523438 275.480469 C 547.46875 275.785156 545.40625 276.039062 543.335938 276.246094 C 541.265625 276.449219 539.195312 276.601562 537.117188 276.703125 C 535.039062 276.804688 532.960938 276.855469 530.882812 276.855469 L 403.824219 276.855469 Z M 403.824219 22.558594 " fill-opacity="1" fill-rule="nonzero"/></g><g clip-path="url(#41bc37af76)"><path fill="#1abcfe" d="M 657.941406 404.007812 C 657.941406 406.085938 657.890625 408.167969 657.789062 410.246094 C 657.6875 412.324219 657.53125 414.398438 657.328125 416.46875 C 657.125 418.539062 656.871094 420.605469 656.566406 422.664062 C 656.261719 424.722656 655.90625 426.769531 655.5 428.8125 C 655.09375 430.851562 654.636719 432.882812 654.132812 434.902344 C 653.628906 436.921875 653.074219 438.925781 652.46875 440.917969 C 651.867188 442.90625 651.214844 444.882812 650.511719 446.84375 C 649.8125 448.800781 649.066406 450.742188 648.269531 452.664062 C 647.472656 454.585938 646.632812 456.488281 645.742188 458.371094 C 644.851562 460.25 643.917969 462.109375 642.9375 463.945312 C 641.957031 465.78125 640.933594 467.589844 639.863281 469.375 C 638.796875 471.160156 637.683594 472.917969 636.527344 474.648438 C 635.371094 476.378906 634.175781 478.078125 632.9375 479.75 C 631.699219 481.421875 630.417969 483.0625 629.101562 484.667969 C 627.78125 486.277344 626.421875 487.851562 625.027344 489.394531 C 623.628906 490.9375 622.195312 492.445312 620.726562 493.914062 C 619.253906 495.386719 617.75 496.820312 616.210938 498.21875 C 614.667969 499.617188 613.09375 500.976562 611.488281 502.292969 C 609.878906 503.613281 608.242188 504.894531 606.570312 506.132812 C 604.902344 507.375 603.199219 508.570312 601.472656 509.726562 C 599.742188 510.882812 597.988281 511.996094 596.203125 513.066406 C 594.417969 514.136719 592.609375 515.160156 590.777344 516.144531 C 588.941406 517.125 587.085938 518.058594 585.207031 518.949219 C 583.328125 519.839844 581.425781 520.679688 579.503906 521.476562 C 577.585938 522.273438 575.644531 523.023438 573.6875 523.722656 C 571.730469 524.425781 569.753906 525.078125 567.765625 525.679688 C 565.773438 526.285156 563.773438 526.839844 561.753906 527.347656 C 559.738281 527.851562 557.710938 528.308594 555.667969 528.714844 C 553.628906 529.121094 551.582031 529.476562 549.523438 529.78125 C 547.46875 530.085938 545.40625 530.339844 543.335938 530.542969 C 541.265625 530.75 539.195312 530.902344 537.117188 531.003906 C 535.039062 531.105469 532.960938 531.15625 530.882812 531.15625 C 528.800781 531.15625 526.722656 531.105469 524.648438 531.003906 C 522.570312 530.902344 520.496094 530.75 518.429688 530.542969 C 516.359375 530.339844 514.296875 530.085938 512.238281 529.78125 C 510.183594 529.476562 508.132812 529.121094 506.09375 528.714844 C 504.054688 528.308594 502.027344 527.851562 500.007812 527.347656 C 497.992188 526.839844 495.988281 526.285156 494 525.679688 C 492.007812 525.078125 490.035156 524.425781 488.078125 523.722656 C 486.121094 523.023438 484.179688 522.273438 482.257812 521.476562 C 480.335938 520.679688 478.4375 519.839844 476.558594 518.949219 C 474.675781 518.058594 472.820312 517.125 470.988281 516.144531 C 469.152344 515.160156 467.34375 514.136719 465.5625 513.066406 C 463.777344 511.996094 462.019531 510.882812 460.292969 509.726562 C 458.5625 508.570312 456.863281 507.375 455.191406 506.132812 C 453.523438 504.894531 451.882812 503.613281 450.277344 502.292969 C 448.667969 500.976562 447.09375 499.617188 445.554688 498.21875 C 444.015625 496.820312 442.507812 495.386719 441.039062 493.914062 C 439.566406 492.445312 438.132812 490.9375 436.738281 489.394531 C 435.339844 487.851562 433.984375 486.277344 432.664062 484.667969 C 431.34375 483.0625 430.066406 481.421875 428.828125 479.75 C 427.589844 478.078125 426.390625 476.378906 425.238281 474.648438 C 424.082031 472.917969 422.96875 471.160156 421.898438 469.375 C 420.832031 467.589844 419.804688 465.78125 418.824219 463.945312 C 417.847656 462.109375 416.910156 460.25 416.023438 458.371094 C 415.132812 456.488281 414.289062 454.585938 413.496094 452.664062 C 412.699219 450.742188 411.949219 448.800781 411.25 446.84375 C 410.550781 444.882812 409.898438 442.90625 409.292969 440.917969 C 408.691406 438.925781 408.136719 436.921875 407.632812 434.902344 C 407.125 432.882812 406.671875 430.851562 406.265625 428.8125 C 405.859375 426.769531 405.503906 424.722656 405.199219 422.664062 C 404.894531 420.605469 404.640625 418.539062 404.433594 416.46875 C 404.230469 414.398438 404.078125 412.324219 403.976562 410.246094 C 403.875 408.167969 403.824219 406.085938 403.824219 404.007812 C 403.824219 401.925781 403.875 399.847656 403.976562 397.769531 C 404.078125 395.6875 404.230469 393.613281 404.433594 391.542969 C 404.640625 389.472656 404.894531 387.410156 405.199219 385.351562 C 405.503906 383.292969 405.859375 381.242188 406.265625 379.199219 C 406.671875 377.160156 407.125 375.128906 407.632812 373.113281 C 408.136719 371.09375 408.691406 369.089844 409.292969 367.097656 C 409.898438 365.105469 410.550781 363.128906 411.25 361.171875 C 411.949219 359.210938 412.699219 357.269531 413.496094 355.347656 C 414.289062 353.425781 415.132812 351.523438 416.023438 349.644531 C 416.910156 347.761719 417.847656 345.902344 418.824219 344.070312 C 419.804688 342.234375 420.832031 340.421875 421.898438 338.636719 C 422.96875 336.855469 424.082031 335.097656 425.238281 333.367188 C 426.390625 331.636719 427.589844 329.933594 428.828125 328.261719 C 430.066406 326.59375 431.34375 324.953125 432.664062 323.34375 C 433.984375 321.734375 435.339844 320.160156 436.738281 318.617188 C 438.132812 317.074219 439.566406 315.570312 441.039062 314.097656 C 442.507812 312.625 444.015625 311.191406 445.554688 309.792969 C 447.09375 308.398438 448.667969 307.039062 450.277344 305.71875 C 451.882812 304.398438 453.523438 303.117188 455.191406 301.878906 C 456.863281 300.640625 458.5625 299.441406 460.292969 298.285156 C 462.019531 297.128906 463.777344 296.015625 465.5625 294.945312 C 467.34375 293.875 469.152344 292.851562 470.988281 291.871094 C 472.820312 290.890625 474.675781 289.953125 476.558594 289.0625 C 478.4375 288.175781 480.335938 287.332031 482.257812 286.535156 C 484.179688 285.738281 486.121094 284.992188 488.078125 284.289062 C 490.035156 283.589844 492.007812 282.9375 494 282.332031 C 495.988281 281.726562 497.992188 281.171875 500.007812 280.667969 C 502.027344 280.160156 504.054688 279.707031 506.09375 279.300781 C 508.132812 278.894531 510.183594 278.539062 512.238281 278.234375 C 514.296875 277.925781 516.359375 277.671875 518.429688 277.46875 C 520.496094 277.265625 522.570312 277.113281 524.648438 277.011719 C 526.722656 276.90625 528.800781 276.855469 530.882812 276.855469 C 532.960938 276.855469 535.039062 276.90625 537.117188 277.011719 C 539.195312 277.113281 541.265625 277.265625 543.335938 277.46875 C 545.40625 277.671875 547.46875 277.925781 549.527344 278.234375 C 551.582031 278.539062 553.628906 278.894531 555.667969 279.300781 C 557.710938 279.707031 559.738281 280.160156 561.753906 280.667969 C 563.773438 281.171875 565.773438 281.726562 567.765625 282.332031 C 569.753906 282.9375 571.730469 283.589844 573.6875 284.289062 C 575.644531 284.992188 577.585938 285.738281 579.503906 286.535156 C 581.425781 287.332031 583.328125 288.175781 585.207031 289.0625 C 587.085938 289.953125 588.941406 290.890625 590.777344 291.871094 C 592.609375 292.851562 594.417969 293.875 596.203125 294.945312 C 597.988281 296.015625 599.742188 297.128906 601.472656 298.285156 C 603.199219 299.441406 604.902344 300.640625 606.570312 301.878906 C 608.242188 303.117188 609.878906 304.398438 611.488281 305.71875 C 613.09375 307.039062 614.667969 308.398438 616.210938 309.792969 C 617.75 311.191406 619.253906 312.625 620.726562 314.097656 C 622.195312 315.570312 623.628906 317.074219 625.027344 318.617188 C 626.421875 320.160156 627.78125 321.734375 629.101562 323.34375 C 630.417969 324.953125 631.699219 326.59375 632.9375 328.261719 C 634.175781 329.933594 635.371094 331.636719 636.527344 333.367188 C 637.683594 335.097656 638.796875 336.855469 639.863281 338.636719 C 640.933594 340.421875 641.957031 342.234375 642.9375 344.070312 C 643.917969 345.902344 644.851562 347.761719 645.742188 349.644531 C 646.632812 351.523438 647.472656 353.425781 648.269531 355.347656 C 649.066406 357.269531 649.8125 359.210938 650.511719 361.171875 C 651.214844 363.128906 651.867188 365.105469 652.46875 367.097656 C 653.074219 369.089844 653.628906 371.09375 654.132812 373.113281 C 654.636719 375.128906 655.09375 377.160156 655.5 379.199219 C 655.90625 381.242188 656.261719 383.292969 656.566406 385.351562 C 656.871094 387.410156 657.125 389.472656 657.328125 391.542969 C 657.53125 393.613281 657.6875 395.6875 657.789062 397.769531 C 657.890625 399.847656 657.941406 401.925781 657.941406 404.007812 Z M 657.941406 404.007812 " fill-opacity="1" fill-rule="nonzero"/></g></svg>