<svg xmlns="http://www.w3.org/2000/svg" xmlns:xlink="http://www.w3.org/1999/xlink" width="1080" zoomAndPan="magnify" viewBox="0 0 810 809.999993" height="1080" preserveAspectRatio="xMidYMid meet" version="1.0"><defs><clipPath id="bdd3bf3af6"><path d="M 55.996094 8 L 754.246094 8 L 754.246094 802 L 55.996094 802 Z M 55.996094 8 " clip-rule="nonzero"/></clipPath></defs><g clip-path="url(#bdd3bf3af6)"><path fill="#e44d26" d="M 119.382812 721.890625 L 55.796875 8.992188 L 754.445312 8.992188 L 690.808594 721.792969 L 404.675781 801.050781 Z M 119.382812 721.890625 " fill-opacity="1" fill-rule="nonzero"/></g><path fill="#f16529" d="M 636.3125 676.398438 L 690.710938 67.285156 L 405.121094 67.285156 L 405.121094 740.480469 Z M 636.3125 676.398438 " fill-opacity="1" fill-rule="nonzero"/><path fill="#ebebeb" d="M 404.824219 154.710938 L 185.789062 154.710938 L 209.386719 419.117188 L 405.121094 419.117188 L 405.121094 331.691406 L 289.390625 331.691406 L 281.390625 242.160156 L 405.121094 242.160156 L 405.121094 154.710938 Z M 405.121094 558.476562 L 404.75 558.574219 L 307.339844 532.285156 L 301.152344 462.558594 L 213.300781 462.558594 L 225.554688 599.835938 L 404.722656 649.34375 L 405.121094 649.21875 Z M 405.121094 558.476562 " fill-opacity="1" fill-rule="nonzero"/><path fill="#ffffff" d="M 404.824219 419.117188 L 512.53125 419.117188 L 502.628906 532.484375 L 405.070312 558.796875 L 405.070312 649.761719 L 584.386719 600.085938 L 608.40625 331.640625 L 405.121094 331.640625 Z M 621.824219 178.175781 L 623.90625 154.710938 L 404.773438 154.710938 L 404.773438 242.136719 L 616.03125 242.136719 L 617.765625 222.484375 Z M 621.824219 178.175781 " fill-opacity="1" fill-rule="nonzero"/></svg>