<svg xmlns="http://www.w3.org/2000/svg" xmlns:xlink="http://www.w3.org/1999/xlink" width="500" zoomAndPan="magnify" viewBox="0 0 375 374.999991" height="500" preserveAspectRatio="xMidYMid meet" version="1.0"><defs><clipPath id="871d0e8488"><path d="M 9.8125 13.363281 L 365.3125 13.363281 L 365.3125 360 L 9.8125 360 Z M 9.8125 13.363281 " clip-rule="nonzero"/></clipPath></defs><g clip-path="url(#871d0e8488)"><path fill="#ffffff" d="M 187.5625 13.492188 C 89.40625 13.492188 9.8125 92.984375 9.8125 191.039062 C 9.8125 269.496094 60.742188 336.046875 131.367188 359.515625 C 140.25 361.167969 143.511719 355.660156 143.511719 350.972656 C 143.511719 346.742188 143.347656 332.761719 143.273438 317.917969 C 93.820312 328.667969 83.386719 296.972656 83.386719 296.972656 C 75.300781 276.445312 63.648438 270.992188 63.648438 270.992188 C 47.523438 259.980469 64.867188 260.199219 64.867188 260.199219 C 82.714844 261.449219 92.113281 278.496094 92.113281 278.496094 C 107.96875 305.640625 133.695312 297.792969 143.839844 293.253906 C 145.433594 281.785156 150.039062 273.945312 155.121094 269.507812 C 115.644531 265.027344 74.140625 249.796875 74.140625 181.773438 C 74.140625 162.382812 81.085938 146.546875 92.453125 134.113281 C 90.609375 129.640625 84.527344 111.582031 94.175781 87.125 C 94.175781 87.125 109.105469 82.351562 143.070312 105.324219 C 157.246094 101.390625 172.453125 99.417969 187.5625 99.351562 C 202.667969 99.417969 217.890625 101.390625 232.09375 105.324219 C 266.019531 82.351562 280.921875 87.125 280.921875 87.125 C 290.601562 111.582031 284.519531 129.640625 282.671875 134.113281 C 294.058594 146.546875 300.960938 162.382812 300.960938 181.773438 C 300.960938 249.964844 259.382812 264.972656 219.792969 269.371094 C 226.164062 274.875 231.859375 285.683594 231.859375 302.257812 C 231.859375 326.003906 231.652344 345.132812 231.652344 350.972656 C 231.652344 355.703125 234.84375 361.238281 243.859375 359.488281 C 314.445312 335.992188 365.3125 269.464844 365.3125 191.039062 C 365.3125 92.984375 285.726562 13.492188 187.5625 13.492188 Z M 76.386719 266.414062 C 75.992188 267.304688 74.605469 267.566406 73.339844 266.957031 C 72.046875 266.375 71.324219 265.179688 71.742188 264.292969 C 72.125 263.378906 73.519531 263.128906 74.804688 263.738281 C 76.097656 264.320312 76.832031 265.527344 76.386719 266.414062 Z M 85.128906 274.210938 C 84.28125 274.988281 82.625 274.625 81.5 273.390625 C 80.335938 272.144531 80.117188 270.492188 80.976562 269.703125 C 81.851562 268.910156 83.460938 269.285156 84.625 270.519531 C 85.789062 271.769531 86.015625 273.421875 85.128906 274.210938 Z M 91.125 284.183594 C 90.039062 284.933594 88.257812 284.226562 87.15625 282.644531 C 86.066406 281.0625 86.066406 279.175781 87.179688 278.414062 C 88.285156 277.652344 90.039062 278.34375 91.152344 279.910156 C 92.238281 281.507812 92.238281 283.40625 91.125 284.183594 Z M 101.269531 295.722656 C 100.296875 296.792969 98.222656 296.515625 96.703125 295.042969 C 95.148438 293.617188 94.714844 291.578125 95.691406 290.507812 C 96.679688 289.441406 98.765625 289.730469 100.296875 291.1875 C 101.839844 292.617188 102.308594 294.671875 101.269531 295.722656 Z M 114.382812 299.621094 C 113.953125 301.007812 111.953125 301.648438 109.941406 301.050781 C 107.929688 300.453125 106.613281 298.816406 107.019531 297.417969 C 107.4375 296.015625 109.445312 295.351562 111.472656 295.988281 C 113.480469 296.597656 114.800781 298.207031 114.382812 299.621094 Z M 129.300781 301.273438 C 129.351562 302.742188 127.644531 303.949219 125.53125 303.976562 C 123.40625 304.03125 121.6875 302.839844 121.664062 301.398438 C 121.664062 299.925781 123.332031 298.71875 125.457031 298.691406 C 127.570312 298.652344 129.300781 299.816406 129.300781 301.273438 Z M 143.960938 300.71875 C 144.210938 302.148438 142.746094 303.617188 140.644531 304.003906 C 138.582031 304.378906 136.671875 303.492188 136.410156 302.078125 C 136.152344 300.621094 137.648438 299.152344 139.707031 298.777344 C 141.8125 298.402344 143.691406 299.261719 143.960938 300.71875 Z M 143.960938 300.71875 " fill-opacity="1" fill-rule="nonzero"/></g></svg>