<svg xmlns="http://www.w3.org/2000/svg" xmlns:xlink="http://www.w3.org/1999/xlink" width="1080" zoomAndPan="magnify" viewBox="0 0 810 809.999993" height="1080" preserveAspectRatio="xMidYMid meet" version="1.0"><defs><clipPath id="ef54035db9"><path d="M 17 67.71875 L 119 67.71875 L 119 473 L 17 473 Z M 17 67.71875 " clip-rule="nonzero"/></clipPath><clipPath id="5fe1ba5258"><path d="M 489 67.71875 L 591 67.71875 L 591 473 L 489 473 Z M 489 67.71875 " clip-rule="nonzero"/></clipPath><clipPath id="d2920e692d"><path d="M 17 67.71875 L 304 67.71875 L 304 372 L 17 372 Z M 17 67.71875 " clip-rule="nonzero"/></clipPath><clipPath id="bde1bf2fef"><path d="M 303 67.71875 L 591 67.71875 L 591 372 L 303 372 Z M 303 67.71875 " clip-rule="nonzero"/></clipPath><clipPath id="ec5512a5a2"><path d="M 506 438 L 793 438 L 793 741.96875 L 506 741.96875 Z M 506 438 " clip-rule="nonzero"/></clipPath></defs><g clip-path="url(#ef54035db9)"><path fill="#29b6f6" d="M 17.125 67.71875 L 118.28125 135.144531 L 118.28125 472.269531 L 17.125 404.84375 Z M 17.125 67.71875 " fill-opacity="1" fill-rule="nonzero"/></g><path fill="#0288d1" d="M 792.652344 320.5625 L 691.496094 387.988281 L 691.496094 607.121094 L 792.652344 539.695312 Z M 792.652344 320.5625 " fill-opacity="1" fill-rule="nonzero"/><path fill="#0288d1" d="M 792.652344 84.578125 L 691.496094 152 L 691.496094 269.996094 L 792.652344 202.570312 Z M 792.652344 84.578125 " fill-opacity="1" fill-rule="nonzero"/><g clip-path="url(#5fe1ba5258)"><path fill="#0288d1" d="M 590.339844 67.71875 L 489.1875 135.144531 L 489.1875 472.269531 L 590.339844 404.84375 Z M 590.339844 67.71875 " fill-opacity="1" fill-rule="nonzero"/></g><g clip-path="url(#d2920e692d)"><path fill="#29b6f6" d="M 17.125 185.714844 L 303.734375 371.132812 L 303.734375 253.140625 L 17.125 67.71875 Z M 17.125 185.714844 " fill-opacity="1" fill-rule="nonzero"/></g><g clip-path="url(#bde1bf2fef)"><path fill="#0288d1" d="M 590.339844 185.714844 L 303.734375 371.132812 L 303.734375 253.140625 L 590.339844 67.71875 Z M 590.339844 185.714844 " fill-opacity="1" fill-rule="nonzero"/></g><path fill="#0288d1" d="M 590.339844 421.703125 L 303.734375 607.121094 L 303.734375 489.125 L 590.339844 303.707031 Z M 590.339844 421.703125 " fill-opacity="1" fill-rule="nonzero"/><g clip-path="url(#ec5512a5a2)"><path fill="#0288d1" d="M 792.652344 556.550781 L 506.046875 741.96875 L 506.046875 623.976562 L 792.652344 438.558594 Z M 792.652344 556.550781 " fill-opacity="1" fill-rule="nonzero"/></g><path fill="#29b6f6" d="M 506.046875 620.015625 L 303.734375 489.125 L 303.734375 607.121094 L 506.046875 738.007812 Z M 506.046875 620.015625 " fill-opacity="1" fill-rule="nonzero"/></svg>