<svg xmlns="http://www.w3.org/2000/svg" xmlns:xlink="http://www.w3.org/1999/xlink" width="1080" zoomAndPan="magnify" viewBox="0 0 810 809.999993" height="1080" preserveAspectRatio="xMidYMid meet" version="1.0"><defs><clipPath id="e342c7e1c9"><path d="M 20 20.414062 L 568 20.414062 L 568 608 L 20 608 Z M 20 20.414062 " clip-rule="nonzero"/></clipPath><clipPath id="2ed4c808a4"><path d="M 243 202 L 790 202 L 790 789.914062 L 243 789.914062 Z M 243 202 " clip-rule="nonzero"/></clipPath></defs><g clip-path="url(#e342c7e1c9)"><path fill="#0277bd" d="M 414.980469 20.414062 C 383.511719 20.515625 361.695312 23.289062 335.328125 27.847656 C 257.453125 41.414062 243.265625 69.90625 243.265625 122.414062 L 243.265625 202.664062 L 425.402344 202.664062 L 425.402344 243.164062 L 148.316406 243.164062 C 94.96875 243.164062 48.28125 268.316406 33.488281 328.597656 C 16.773438 397.792969 16.023438 441.128906 33.488281 513.378906 C 46.746094 567.265625 75.945312 607.664062 129.3125 607.664062 L 202.8125 607.664062 L 202.8125 504.308594 C 202.8125 444.246094 257.171875 384.914062 319.460938 384.914062 L 465.894531 384.914062 C 516.953125 384.914062 567.082031 347.207031 567.082031 296.28125 L 567.082031 122.414062 C 567.082031 73.023438 531.484375 36.089844 481.722656 27.804688 C 482.957031 27.683594 446.183594 20.292969 414.980469 20.414062 Z M 314.117188 101.414062 C 330.734375 101.414062 344.472656 115.125 344.472656 131.828125 C 344.472656 148.699219 330.734375 162.164062 314.117188 162.164062 C 297.179688 162.164062 283.761719 148.71875 283.761719 131.828125 C 283.761719 115.183594 297.179688 101.414062 314.117188 101.414062 Z M 314.117188 101.414062 " fill-opacity="1" fill-rule="nonzero"/></g><g clip-path="url(#2ed4c808a4)"><path fill="#ffc107" d="M 395.371094 789.914062 C 426.839844 789.8125 448.65625 787.039062 475.023438 782.484375 C 552.894531 768.914062 567.082031 740.421875 567.082031 687.914062 L 567.082031 607.664062 L 384.949219 607.664062 L 384.949219 567.164062 L 662.054688 567.164062 C 715.398438 567.164062 762.085938 542.015625 776.878906 481.730469 C 793.597656 412.535156 794.34375 369.199219 776.878906 296.949219 C 763.605469 243.0625 734.402344 202.664062 681.039062 202.664062 L 607.535156 202.664062 L 607.535156 306.019531 C 607.535156 366.082031 553.179688 425.414062 490.890625 425.414062 L 344.453125 425.414062 C 293.394531 425.414062 243.265625 463.121094 243.265625 514.046875 L 243.265625 687.914062 C 243.265625 737.304688 278.863281 774.242188 328.628906 782.523438 C 327.394531 782.644531 364.164062 790.035156 395.371094 789.914062 Z M 496.253906 708.914062 C 479.636719 708.914062 465.894531 695.207031 465.894531 678.5 C 465.894531 661.628906 479.636719 648.164062 496.253906 648.164062 C 513.191406 648.164062 526.609375 661.609375 526.609375 678.5 C 526.609375 695.144531 513.171875 708.914062 496.253906 708.914062 Z M 496.253906 708.914062 " fill-opacity="1" fill-rule="nonzero"/></g></svg>