<svg xmlns="http://www.w3.org/2000/svg" xmlns:xlink="http://www.w3.org/1999/xlink" width="1080" zoomAndPan="magnify" viewBox="0 0 810 809.999993" height="1080" preserveAspectRatio="xMidYMid meet" version="1.0"><path fill="#00d8ff" d="M 663.113281 279.648438 C 654.824219 276.789062 646.222656 274.085938 637.335938 271.527344 C 638.808594 265.582031 640.152344 259.714844 641.339844 253.945312 C 660.832031 159.238281 648.097656 82.941406 604.519531 57.820312 C 562.726562 33.734375 494.402344 58.847656 425.390625 118.890625 C 418.757812 124.664062 412.09375 130.773438 405.460938 137.179688 C 401.019531 132.941406 396.609375 128.847656 392.199219 124.929688 C 319.871094 60.730469 247.378906 33.671875 203.847656 58.867188 C 162.105469 83.023438 149.746094 154.75 167.316406 244.507812 C 169.011719 253.175781 170.996094 262.03125 173.234375 271.03125 C 162.976562 273.945312 153.074219 277.046875 143.597656 280.351562 C 58.804688 309.902344 4.65625 356.222656 4.65625 404.273438 C 4.65625 453.878906 62.789062 503.667969 151.101562 533.851562 C 158.070312 536.226562 165.300781 538.480469 172.753906 540.605469 C 170.335938 550.332031 168.234375 559.871094 166.464844 569.191406 C 149.714844 657.390625 162.796875 727.421875 204.425781 751.410156 C 247.421875 776.210938 319.589844 750.722656 389.851562 689.324219 C 395.421875 684.476562 400.988281 679.316406 406.558594 673.9375 C 413.816406 680.878906 421.042969 687.480469 428.207031 693.671875 C 496.28125 752.222656 563.507812 775.867188 605.082031 751.816406 C 648.035156 726.949219 662.019531 651.699219 643.875 560.183594 C 642.5 553.179688 640.871094 546.046875 639.089844 538.792969 C 644.15625 537.292969 649.132812 535.726562 653.980469 534.132812 C 745.796875 503.699219 805.519531 454.566406 805.519531 404.273438 C 805.519531 356.046875 749.613281 309.417969 663.113281 279.648438 Z M 643.21875 501.667969 C 638.839844 503.105469 634.335938 504.511719 629.765625 505.859375 C 619.628906 473.800781 605.960938 439.679688 589.191406 404.429688 C 605.179688 370.023438 618.316406 336.351562 628.171875 304.484375 C 636.367188 306.851562 644.3125 309.351562 651.976562 311.988281 C 726.089844 337.496094 771.292969 375.21875 771.292969 404.273438 C 771.292969 435.207031 722.492188 475.394531 643.21875 501.667969 Z M 610.308594 566.816406 C 618.347656 607.289062 619.472656 643.882812 614.15625 672.5 C 609.402344 698.207031 599.796875 715.347656 587.941406 722.195312 C 562.695312 736.804688 508.730469 717.816406 450.542969 667.746094 C 443.847656 661.988281 437.121094 655.859375 430.394531 649.386719 C 452.953125 624.707031 475.507812 596.027344 497.53125 564.15625 C 536.230469 560.75 572.800781 555.117188 605.992188 547.457031 C 607.617188 554.054688 609.058594 560.5 610.308594 566.816406 Z M 277.699219 719.664062 C 253.042969 728.390625 233.402344 728.640625 221.53125 721.789062 C 196.269531 707.214844 185.765625 650.980469 200.089844 575.574219 C 201.734375 566.941406 203.6875 558.058594 205.9375 548.988281 C 238.742188 556.246094 275.054688 561.46875 313.859375 564.59375 C 336.027344 595.777344 359.238281 624.425781 382.605469 649.511719 C 377.507812 654.453125 372.410156 659.144531 367.339844 663.554688 C 336.277344 690.734375 305.140625 710 277.699219 719.664062 Z M 162.179688 501.480469 C 123.128906 488.125 90.878906 470.796875 68.773438 451.84375 C 48.90625 434.859375 38.878906 417.972656 38.878906 404.273438 C 38.878906 375.125 82.355469 337.921875 154.867188 312.648438 C 163.667969 309.582031 172.878906 306.691406 182.433594 303.976562 C 192.457031 336.566406 205.605469 370.652344 221.46875 405.085938 C 205.398438 440.054688 192.0625 474.675781 181.945312 507.671875 C 175.128906 505.703125 168.53125 503.636719 162.179688 501.480469 Z M 200.902344 237.9375 C 185.851562 161.035156 195.847656 103.027344 221 88.46875 C 247.792969 72.964844 307.039062 95.070312 369.46875 150.507812 C 373.472656 154.050781 377.476562 157.757812 381.511719 161.59375 C 358.238281 186.574219 335.242188 215.011719 313.277344 246.003906 C 275.609375 249.492188 239.554688 255.097656 206.40625 262.605469 C 204.324219 254.226562 202.480469 245.988281 200.902344 237.9375 Z M 546.335938 323.21875 C 538.421875 309.535156 530.289062 296.175781 521.996094 283.175781 C 547.554688 286.40625 572.019531 290.695312 595.015625 295.941406 C 588.132812 318.058594 579.527344 341.179688 569.390625 364.894531 C 562.132812 351.097656 554.4375 337.195312 546.335938 323.21875 Z M 405.464844 186.039062 C 421.265625 203.132812 437.0625 222.214844 452.609375 242.917969 C 436.9375 242.179688 421.078125 241.796875 405.089844 241.796875 C 389.261719 241.796875 373.523438 242.171875 357.945312 242.898438 C 373.492188 222.386719 389.449219 203.328125 405.464844 186.039062 Z M 263.695312 323.457031 C 255.78125 337.179688 248.238281 351.007812 241.085938 364.863281 C 231.125 341.238281 222.601562 318.007812 215.640625 295.578125 C 238.488281 290.46875 262.855469 286.285156 288.246094 283.117188 C 279.832031 296.234375 271.632812 309.691406 263.695312 323.453125 Z M 288.976562 527.847656 C 262.742188 524.9375 238.011719 520.964844 215.167969 515.992188 C 222.242188 493.160156 230.949219 469.453125 241.125 445.308594 C 248.292969 459.164062 255.863281 472.988281 263.828125 486.75 L 263.832031 486.75 C 271.945312 500.761719 280.351562 514.460938 288.976562 527.847656 Z M 406.40625 624.894531 C 390.199219 607.414062 374.027344 588.050781 358.226562 567.253906 C 373.554688 567.847656 389.199219 568.160156 405.089844 568.160156 C 421.421875 568.160156 437.5625 567.785156 453.421875 567.097656 C 437.84375 588.273438 422.078125 607.664062 406.40625 624.894531 Z M 569.707031 444.085938 C 580.402344 468.484375 589.445312 492.066406 596.609375 514.523438 C 573.398438 519.808594 548.308594 524.0625 521.902344 527.25 C 530.226562 514.085938 538.421875 500.480469 546.492188 486.5 C 554.65625 472.363281 562.386719 458.195312 569.707031 444.085938 Z M 516.835938 469.421875 C 504.324219 491.128906 491.464844 511.832031 478.417969 531.378906 C 454.675781 533.070312 430.117188 533.945312 405.089844 533.945312 C 380.15625 533.945312 355.914062 533.195312 332.574219 531.660156 C 318.996094 511.863281 305.875 491.097656 293.4375 469.609375 C 281.03125 448.183594 269.613281 426.574219 259.269531 405.085938 C 269.609375 383.566406 281 361.925781 293.335938 340.542969 L 293.332031 340.542969 C 305.699219 319.105469 318.714844 298.425781 332.167969 278.738281 C 355.976562 276.9375 380.40625 276 405.089844 276 C 429.898438 276 454.332031 276.945312 478.136719 278.761719 C 491.402344 298.304688 504.324219 318.914062 516.742188 340.359375 C 529.285156 362.050781 540.832031 383.535156 551.246094 404.617188 C 540.863281 426.042969 529.347656 447.746094 516.835938 469.421875 Z M 587.410156 87.445312 C 614.253906 102.90625 624.671875 165.261719 607.808594 247.035156 C 606.746094 252.25 605.523438 257.566406 604.210938 262.949219 C 570.988281 255.285156 534.917969 249.582031 497.160156 246.039062 C 475.132812 214.710938 452.328125 186.226562 429.429688 161.570312 C 435.59375 155.652344 441.753906 150.003906 447.855469 144.679688 C 506.980469 93.238281 562.257812 72.929688 587.410156 87.445312 Z M 405.089844 332.757812 C 444.570312 332.757812 476.605469 364.761719 476.605469 404.261719 C 476.605469 443.734375 444.570312 475.761719 405.089844 475.761719 C 365.609375 475.761719 333.574219 443.734375 333.574219 404.261719 C 333.574219 364.761719 365.609375 332.757812 405.089844 332.757812 Z M 405.089844 332.757812 " fill-opacity="1" fill-rule="nonzero"/></svg>